# xmcd
#
# Track frame offsets:
#	150
#	13020
#	34150
#	50676
#	67466
#	84127
#	106434
#	118800
#	135604
#	151973
#	168109
#
# Disc length: 2515 seconds
#
# Revision: 0
# Processed by: cddbd v1.5.1PL0 Copyright (c) Steve Scherf et al.
# Submitted via: dBpowerAMP V4.0
#
DISCID=9109d10b
DTITLE=Calvin James - It Ain't Over
DYEAR=2003
DGENRE=Blues
TTITLE0=Learn How to Fight
TTITLE1=It Ain't Over
TTITLE2=Louisiana Blues
TTITLE3=You Know My Love
TTITLE4=Too Hard to Love You
TTITLE5=Unbreakable
TTITLE6=Jacki
TTITLE7=Give It Easy
TTITLE8=Livin' the Hard Way
TTITLE9=Cold
TTITLE10=Rogues's Moon
EXTD=Plays in Minneapolis/St. Paul MN, USA
EXTT0=
EXTT1=
EXTT2=
EXTT3=
EXTT4=
EXTT5=
EXTT6=
EXTT7=
EXTT8=
EXTT9=
EXTT10=
PLAYORDER=
